# xmcd
#
# Track frame offsets:
#	200
#	13562
#	28187
#	42062
#
# Disc length: 826 seconds
#
# Revision: 1
# Processed by: cddbd v1.4PL0 Copyright (c) Steve Scherf et al.
# Submitted via: audiograbber 1.82.02
#
DISCID=25033804
DTITLE=Hal Ketchum - singles
DYEAR=1991
DGENRE=Country
TTITLE0=Small Town Saturday Night
TTITLE1=I Miss My Mary
TTITLE2=Five O'Clock World
TTITLE3=Past the Point of Rescue
EXTD=Promo singles cd
EXTT0=
EXTT1=
EXTT2=
EXTT3=
PLAYORDER=
